%TF.GenerationSoftware,KiCad,Pcbnew,5.1.8-db9833491~88~ubuntu20.10.1*%
%TF.CreationDate,2020-12-02T23:45:44-06:00*%
%TF.ProjectId,skedd_swd_adapter,736b6564-645f-4737-9764-5f6164617074,rev?*%
%TF.SameCoordinates,Original*%
%TF.FileFunction,Copper,L1,Top*%
%TF.FilePolarity,Positive*%
%FSLAX46Y46*%
G04 Gerber Fmt 4.6, Leading zero omitted, Abs format (unit mm)*
G04 Created by KiCad (PCBNEW 5.1.8-db9833491~88~ubuntu20.10.1) date 2020-12-02 23:45:44*
%MOMM*%
%LPD*%
G01*
G04 APERTURE LIST*
%TA.AperFunction,SMDPad,CuDef*%
%ADD10R,2.400000X0.740000*%
%TD*%
%TA.AperFunction,ComponentPad*%
%ADD11O,1.700000X1.700000*%
%TD*%
%TA.AperFunction,ComponentPad*%
%ADD12R,1.700000X1.700000*%
%TD*%
%TA.AperFunction,ComponentPad*%
%ADD13C,1.850000*%
%TD*%
%TA.AperFunction,ViaPad*%
%ADD14C,0.800000*%
%TD*%
%TA.AperFunction,Conductor*%
%ADD15C,0.250000*%
%TD*%
G04 APERTURE END LIST*
D10*
%TO.P,J1,10*%
%TO.N,/RST*%
X35055001Y-31430001D03*
%TO.P,J1,9*%
%TO.N,GND*%
X31155001Y-31430001D03*
%TO.P,J1,8*%
%TO.N,Net-(J1-Pad8)*%
X35055001Y-30160001D03*
%TO.P,J1,7*%
%TO.N,Net-(J1-Pad7)*%
X31155001Y-30160001D03*
%TO.P,J1,6*%
%TO.N,Net-(J1-Pad6)*%
X35055001Y-28890001D03*
%TO.P,J1,5*%
%TO.N,GND*%
X31155001Y-28890001D03*
%TO.P,J1,4*%
%TO.N,/SWCLK*%
X35055001Y-27620001D03*
%TO.P,J1,3*%
%TO.N,GND*%
X31155001Y-27620001D03*
%TO.P,J1,2*%
%TO.N,/SWDIO*%
X35055001Y-26350001D03*
%TO.P,J1,1*%
%TO.N,+3V3*%
X31155001Y-26350001D03*
%TD*%
D11*
%TO.P,J2,5*%
%TO.N,GND*%
X25955001Y-30400001D03*
%TO.P,J2,4*%
%TO.N,/RST*%
X25955001Y-27860001D03*
%TO.P,J2,3*%
%TO.N,/SWCLK*%
X25955001Y-25320001D03*
%TO.P,J2,2*%
%TO.N,/SWDIO*%
X25955001Y-22780001D03*
D12*
%TO.P,J2,1*%
%TO.N,+3V3*%
X25955001Y-20240001D03*
%TD*%
D13*
%TO.P,J3,4*%
%TO.N,GND*%
X37110001Y-20020001D03*
%TO.P,J3,3*%
%TO.N,/SWCLK*%
X35840001Y-22560001D03*
%TO.P,J3,2*%
%TO.N,/SWDIO*%
X34570001Y-20020001D03*
%TO.P,J3,1*%
%TO.N,+3V3*%
X33300001Y-22560001D03*
%TD*%
D14*
%TO.N,/SWDIO*%
X35560000Y-24765000D03*
X29210000Y-19685000D03*
%TO.N,+3V3*%
X27940000Y-19685000D03*
X31155001Y-24805001D03*
%TO.N,/RST*%
X28575000Y-28575000D03*
X37465000Y-29210000D03*
%TD*%
D15*
%TO.N,GND*%
X26985001Y-31430001D02*
X31155001Y-31430001D01*
X25955001Y-30400001D02*
X26985001Y-31430001D01*
X31155001Y-28890001D02*
X31155001Y-27620001D01*
X31850002Y-32125002D02*
X31155001Y-31430001D01*
X36515002Y-32125002D02*
X31850002Y-32125002D01*
X39965002Y-21566855D02*
X39965002Y-28675002D01*
X39965002Y-28675002D02*
X36515002Y-32125002D01*
X38418148Y-20020001D02*
X39965002Y-21566855D01*
X37110001Y-20020001D02*
X38418148Y-20020001D01*
X32605001Y-28890001D02*
X31155001Y-28890001D01*
X32680002Y-28965002D02*
X32605001Y-28890001D01*
X32680002Y-31355000D02*
X32680002Y-28965002D01*
X32605001Y-31430001D02*
X32680002Y-31355000D01*
X31155001Y-31430001D02*
X32605001Y-31430001D01*
%TO.N,/SWCLK*%
X34550002Y-21270002D02*
X35840001Y-22560001D01*
X32739998Y-21270002D02*
X34550002Y-21270002D01*
X28689999Y-25320001D02*
X32739998Y-21270002D01*
X25955001Y-25320001D02*
X28689999Y-25320001D01*
X36505001Y-27620001D02*
X35055001Y-27620001D01*
X36765000Y-23485000D02*
X36765000Y-27360002D01*
X36765000Y-27360002D02*
X36505001Y-27620001D01*
X35840001Y-22560001D02*
X36765000Y-23485000D01*
%TO.N,/SWDIO*%
X33145000Y-18595000D02*
X34570001Y-20020001D01*
X30140002Y-18595000D02*
X33145000Y-18595000D01*
X25955001Y-22780001D02*
X30140002Y-18595000D01*
X35055001Y-25269999D02*
X35560000Y-24765000D01*
X35055001Y-26350001D02*
X35055001Y-25269999D01*
%TO.N,+3V3*%
X31155001Y-24705001D02*
X33300001Y-22560001D01*
X27384999Y-20240001D02*
X27940000Y-19685000D01*
X25955001Y-20240001D02*
X27384999Y-20240001D01*
X31155001Y-24805001D02*
X31155001Y-24705001D01*
X31155001Y-26350001D02*
X31155001Y-24805001D01*
%TO.N,/RST*%
X27860001Y-27860001D02*
X28575000Y-28575000D01*
X25955001Y-27860001D02*
X27860001Y-27860001D01*
X37465000Y-30470002D02*
X36505001Y-31430001D01*
X36505001Y-31430001D02*
X35055001Y-31430001D01*
X37465000Y-29210000D02*
X37465000Y-30470002D01*
%TD*%
M02*
