%TF.GenerationSoftware,KiCad,Pcbnew,5.1.8-db9833491~88~ubuntu20.10.1*%
%TF.CreationDate,2020-12-02T23:45:44-06:00*%
%TF.ProjectId,skedd_swd_adapter,736b6564-645f-4737-9764-5f6164617074,rev?*%
%TF.SameCoordinates,Original*%
%TF.FileFunction,Legend,Bot*%
%TF.FilePolarity,Positive*%
%FSLAX46Y46*%
G04 Gerber Fmt 4.6, Leading zero omitted, Abs format (unit mm)*
G04 Created by KiCad (PCBNEW 5.1.8-db9833491~88~ubuntu20.10.1) date 2020-12-02 23:45:44*
%MOMM*%
%LPD*%
G01*
G04 APERTURE LIST*
%ADD10C,0.010000*%
G04 APERTURE END LIST*
D10*
%TO.C,REF\u002A\u002A\u002A*%
G36*
X33551090Y-26452348D02*
G01*
X33472546Y-26452778D01*
X33415702Y-26453942D01*
X33376895Y-26456207D01*
X33352462Y-26459940D01*
X33338738Y-26465506D01*
X33332060Y-26473273D01*
X33328764Y-26483605D01*
X33328444Y-26484943D01*
X33323438Y-26509079D01*
X33314171Y-26556701D01*
X33301608Y-26622741D01*
X33286713Y-26702128D01*
X33270449Y-26789796D01*
X33269881Y-26792875D01*
X33253590Y-26878789D01*
X33238348Y-26954696D01*
X33225139Y-27016045D01*
X33214946Y-27058282D01*
X33208752Y-27076855D01*
X33208457Y-27077184D01*
X33190212Y-27086253D01*
X33152595Y-27101367D01*
X33103729Y-27119262D01*
X33103457Y-27119358D01*
X33041907Y-27142493D01*
X32969343Y-27171965D01*
X32900943Y-27201597D01*
X32897706Y-27203062D01*
X32786298Y-27253626D01*
X32539601Y-27085160D01*
X32463923Y-27033803D01*
X32395369Y-26987889D01*
X32337912Y-26950030D01*
X32295524Y-26922837D01*
X32272175Y-26908921D01*
X32269958Y-26907889D01*
X32252990Y-26912484D01*
X32221299Y-26934655D01*
X32173648Y-26975447D01*
X32108802Y-27035905D01*
X32042603Y-27100227D01*
X31978786Y-27163612D01*
X31921671Y-27221451D01*
X31874695Y-27270175D01*
X31841297Y-27306210D01*
X31824915Y-27325984D01*
X31824306Y-27327002D01*
X31822495Y-27340572D01*
X31829317Y-27362733D01*
X31846460Y-27396478D01*
X31875607Y-27444800D01*
X31918445Y-27510692D01*
X31975552Y-27595517D01*
X32026234Y-27670177D01*
X32071539Y-27737140D01*
X32108850Y-27792516D01*
X32135548Y-27832420D01*
X32149015Y-27852962D01*
X32149863Y-27854356D01*
X32148219Y-27874038D01*
X32135755Y-27912293D01*
X32114952Y-27961889D01*
X32107538Y-27977728D01*
X32075186Y-28048290D01*
X32040672Y-28128353D01*
X32012635Y-28197629D01*
X31992432Y-28249045D01*
X31976385Y-28288119D01*
X31967112Y-28308541D01*
X31965959Y-28310114D01*
X31948904Y-28312721D01*
X31908702Y-28319863D01*
X31850698Y-28330523D01*
X31780237Y-28343685D01*
X31702665Y-28358333D01*
X31623328Y-28373449D01*
X31547569Y-28388018D01*
X31480736Y-28401022D01*
X31428172Y-28411445D01*
X31395224Y-28418270D01*
X31387143Y-28420199D01*
X31378795Y-28424962D01*
X31372494Y-28435718D01*
X31367955Y-28456098D01*
X31364896Y-28489734D01*
X31363033Y-28540255D01*
X31362082Y-28611292D01*
X31361760Y-28706476D01*
X31361743Y-28745492D01*
X31361743Y-29062799D01*
X31437943Y-29077839D01*
X31480337Y-29085995D01*
X31543600Y-29097899D01*
X31620038Y-29112116D01*
X31701957Y-29127210D01*
X31724600Y-29131355D01*
X31800194Y-29146053D01*
X31866047Y-29160505D01*
X31916634Y-29173375D01*
X31946426Y-29183322D01*
X31951388Y-29186287D01*
X31963574Y-29207283D01*
X31981047Y-29247967D01*
X32000423Y-29300322D01*
X32004266Y-29311600D01*
X32029661Y-29381523D01*
X32061183Y-29460418D01*
X32092031Y-29531266D01*
X32092183Y-29531595D01*
X32143553Y-29642733D01*
X31974601Y-29891253D01*
X31805648Y-30139772D01*
X32022571Y-30357058D01*
X32088181Y-30421726D01*
X32148021Y-30478733D01*
X32198733Y-30525033D01*
X32236954Y-30557584D01*
X32259325Y-30573343D01*
X32262534Y-30574343D01*
X32281374Y-30566469D01*
X32319820Y-30544578D01*
X32373670Y-30511267D01*
X32438724Y-30469131D01*
X32509060Y-30421943D01*
X32580445Y-30373810D01*
X32644092Y-30331928D01*
X32695959Y-30298871D01*
X32732005Y-30277218D01*
X32748133Y-30269543D01*
X32767811Y-30276037D01*
X32805125Y-30293150D01*
X32852379Y-30317326D01*
X32857388Y-30320013D01*
X32921023Y-30351927D01*
X32964659Y-30367579D01*
X32991798Y-30367745D01*
X33005943Y-30353204D01*
X33006025Y-30353000D01*
X33013095Y-30335779D01*
X33029958Y-30294899D01*
X33055305Y-30233525D01*
X33087829Y-30154819D01*
X33126222Y-30061947D01*
X33169178Y-29958072D01*
X33210778Y-29857502D01*
X33256496Y-29746516D01*
X33298474Y-29643703D01*
X33335452Y-29552215D01*
X33366173Y-29475201D01*
X33389378Y-29415815D01*
X33403810Y-29377209D01*
X33408257Y-29362800D01*
X33397104Y-29346272D01*
X33367931Y-29319930D01*
X33329029Y-29290887D01*
X33218243Y-29199039D01*
X33131649Y-29093759D01*
X33070284Y-28977266D01*
X33035185Y-28851776D01*
X33027392Y-28719507D01*
X33033057Y-28658457D01*
X33063922Y-28531795D01*
X33117080Y-28419941D01*
X33189233Y-28324001D01*
X33277083Y-28245076D01*
X33377335Y-28184270D01*
X33486690Y-28142687D01*
X33601853Y-28121428D01*
X33719525Y-28121599D01*
X33836410Y-28144301D01*
X33949211Y-28190638D01*
X34054631Y-28261713D01*
X34098632Y-28301911D01*
X34183021Y-28405129D01*
X34241778Y-28517925D01*
X34275296Y-28637010D01*
X34283965Y-28759095D01*
X34268177Y-28880893D01*
X34228322Y-28999116D01*
X34164793Y-29110475D01*
X34077979Y-29211684D01*
X33980971Y-29290887D01*
X33940563Y-29321162D01*
X33912018Y-29347219D01*
X33901743Y-29362825D01*
X33907123Y-29379843D01*
X33922425Y-29420500D01*
X33946388Y-29481642D01*
X33977756Y-29560119D01*
X34015268Y-29652780D01*
X34057667Y-29756472D01*
X34099337Y-29857526D01*
X34145310Y-29968607D01*
X34187893Y-30071541D01*
X34225779Y-30163165D01*
X34257660Y-30240316D01*
X34282229Y-30299831D01*
X34298180Y-30338544D01*
X34304090Y-30353000D01*
X34318052Y-30367685D01*
X34345060Y-30367642D01*
X34388587Y-30352099D01*
X34452110Y-30320284D01*
X34452612Y-30320013D01*
X34500440Y-30295323D01*
X34539103Y-30277338D01*
X34560905Y-30269614D01*
X34561867Y-30269543D01*
X34578279Y-30277378D01*
X34614513Y-30299165D01*
X34666526Y-30332328D01*
X34730275Y-30374291D01*
X34800940Y-30421943D01*
X34872884Y-30470191D01*
X34937726Y-30512151D01*
X34991265Y-30545227D01*
X35029303Y-30566821D01*
X35047467Y-30574343D01*
X35064192Y-30564457D01*
X35097820Y-30536826D01*
X35144990Y-30494495D01*
X35202342Y-30440505D01*
X35266516Y-30377899D01*
X35287503Y-30356983D01*
X35504501Y-30139623D01*
X35339332Y-29897220D01*
X35289136Y-29822781D01*
X35245081Y-29755972D01*
X35209638Y-29700665D01*
X35185281Y-29660729D01*
X35174478Y-29640036D01*
X35174162Y-29638563D01*
X35179857Y-29619058D01*
X35195174Y-29579822D01*
X35217463Y-29527430D01*
X35233107Y-29492355D01*
X35262359Y-29425201D01*
X35289906Y-29357358D01*
X35311263Y-29300034D01*
X35317065Y-29282572D01*
X35333548Y-29235938D01*
X35349660Y-29199905D01*
X35358510Y-29186287D01*
X35378040Y-29177952D01*
X35420666Y-29166137D01*
X35480855Y-29152181D01*
X35553078Y-29137422D01*
X35585400Y-29131355D01*
X35667478Y-29116273D01*
X35746205Y-29101669D01*
X35813891Y-29088980D01*
X35862840Y-29079642D01*
X35872057Y-29077839D01*
X35948257Y-29062799D01*
X35948257Y-28745492D01*
X35948086Y-28641154D01*
X35947384Y-28562213D01*
X35945866Y-28505038D01*
X35943251Y-28465999D01*
X35939254Y-28441465D01*
X35933591Y-28427805D01*
X35925980Y-28421389D01*
X35922857Y-28420199D01*
X35904022Y-28415980D01*
X35862412Y-28407562D01*
X35803370Y-28395961D01*
X35732243Y-28382195D01*
X35654375Y-28367280D01*
X35575113Y-28352232D01*
X35499802Y-28338069D01*
X35433787Y-28325806D01*
X35382413Y-28316461D01*
X35351025Y-28311050D01*
X35344041Y-28310114D01*
X35337715Y-28297596D01*
X35323710Y-28264246D01*
X35304645Y-28216377D01*
X35297366Y-28197629D01*
X35268004Y-28125195D01*
X35233429Y-28045170D01*
X35202463Y-27977728D01*
X35179677Y-27926159D01*
X35164518Y-27883785D01*
X35159458Y-27857834D01*
X35160264Y-27854356D01*
X35170959Y-27837936D01*
X35195380Y-27801417D01*
X35230905Y-27748687D01*
X35274913Y-27683635D01*
X35324783Y-27610151D01*
X35334644Y-27595645D01*
X35392508Y-27509704D01*
X35435044Y-27444261D01*
X35463946Y-27396304D01*
X35480910Y-27362820D01*
X35487633Y-27340795D01*
X35485810Y-27327217D01*
X35485764Y-27327131D01*
X35471414Y-27309297D01*
X35439677Y-27274817D01*
X35393990Y-27227268D01*
X35337796Y-27170222D01*
X35274532Y-27107255D01*
X35267398Y-27100227D01*
X35187670Y-27023020D01*
X35126143Y-26966330D01*
X35081579Y-26929110D01*
X35052743Y-26910315D01*
X35040042Y-26907889D01*
X35021506Y-26918471D01*
X34983039Y-26942916D01*
X34928614Y-26978612D01*
X34862202Y-27022947D01*
X34787775Y-27073311D01*
X34770399Y-27085160D01*
X34523703Y-27253626D01*
X34412294Y-27203062D01*
X34344543Y-27173595D01*
X34271817Y-27143959D01*
X34209297Y-27120330D01*
X34206543Y-27119358D01*
X34157640Y-27101457D01*
X34119943Y-27086320D01*
X34101575Y-27077210D01*
X34101544Y-27077184D01*
X34095715Y-27060717D01*
X34085808Y-27020219D01*
X34072805Y-26960242D01*
X34057691Y-26885340D01*
X34041448Y-26800064D01*
X34040119Y-26792875D01*
X34023825Y-26705014D01*
X34008867Y-26625260D01*
X33996209Y-26558681D01*
X33986814Y-26510347D01*
X33981646Y-26485325D01*
X33981556Y-26484943D01*
X33978411Y-26474299D01*
X33972296Y-26466262D01*
X33959547Y-26460467D01*
X33936500Y-26456547D01*
X33899491Y-26454135D01*
X33844856Y-26452865D01*
X33768933Y-26452371D01*
X33668056Y-26452286D01*
X33655000Y-26452286D01*
X33551090Y-26452348D01*
G37*
X33551090Y-26452348D02*
X33472546Y-26452778D01*
X33415702Y-26453942D01*
X33376895Y-26456207D01*
X33352462Y-26459940D01*
X33338738Y-26465506D01*
X33332060Y-26473273D01*
X33328764Y-26483605D01*
X33328444Y-26484943D01*
X33323438Y-26509079D01*
X33314171Y-26556701D01*
X33301608Y-26622741D01*
X33286713Y-26702128D01*
X33270449Y-26789796D01*
X33269881Y-26792875D01*
X33253590Y-26878789D01*
X33238348Y-26954696D01*
X33225139Y-27016045D01*
X33214946Y-27058282D01*
X33208752Y-27076855D01*
X33208457Y-27077184D01*
X33190212Y-27086253D01*
X33152595Y-27101367D01*
X33103729Y-27119262D01*
X33103457Y-27119358D01*
X33041907Y-27142493D01*
X32969343Y-27171965D01*
X32900943Y-27201597D01*
X32897706Y-27203062D01*
X32786298Y-27253626D01*
X32539601Y-27085160D01*
X32463923Y-27033803D01*
X32395369Y-26987889D01*
X32337912Y-26950030D01*
X32295524Y-26922837D01*
X32272175Y-26908921D01*
X32269958Y-26907889D01*
X32252990Y-26912484D01*
X32221299Y-26934655D01*
X32173648Y-26975447D01*
X32108802Y-27035905D01*
X32042603Y-27100227D01*
X31978786Y-27163612D01*
X31921671Y-27221451D01*
X31874695Y-27270175D01*
X31841297Y-27306210D01*
X31824915Y-27325984D01*
X31824306Y-27327002D01*
X31822495Y-27340572D01*
X31829317Y-27362733D01*
X31846460Y-27396478D01*
X31875607Y-27444800D01*
X31918445Y-27510692D01*
X31975552Y-27595517D01*
X32026234Y-27670177D01*
X32071539Y-27737140D01*
X32108850Y-27792516D01*
X32135548Y-27832420D01*
X32149015Y-27852962D01*
X32149863Y-27854356D01*
X32148219Y-27874038D01*
X32135755Y-27912293D01*
X32114952Y-27961889D01*
X32107538Y-27977728D01*
X32075186Y-28048290D01*
X32040672Y-28128353D01*
X32012635Y-28197629D01*
X31992432Y-28249045D01*
X31976385Y-28288119D01*
X31967112Y-28308541D01*
X31965959Y-28310114D01*
X31948904Y-28312721D01*
X31908702Y-28319863D01*
X31850698Y-28330523D01*
X31780237Y-28343685D01*
X31702665Y-28358333D01*
X31623328Y-28373449D01*
X31547569Y-28388018D01*
X31480736Y-28401022D01*
X31428172Y-28411445D01*
X31395224Y-28418270D01*
X31387143Y-28420199D01*
X31378795Y-28424962D01*
X31372494Y-28435718D01*
X31367955Y-28456098D01*
X31364896Y-28489734D01*
X31363033Y-28540255D01*
X31362082Y-28611292D01*
X31361760Y-28706476D01*
X31361743Y-28745492D01*
X31361743Y-29062799D01*
X31437943Y-29077839D01*
X31480337Y-29085995D01*
X31543600Y-29097899D01*
X31620038Y-29112116D01*
X31701957Y-29127210D01*
X31724600Y-29131355D01*
X31800194Y-29146053D01*
X31866047Y-29160505D01*
X31916634Y-29173375D01*
X31946426Y-29183322D01*
X31951388Y-29186287D01*
X31963574Y-29207283D01*
X31981047Y-29247967D01*
X32000423Y-29300322D01*
X32004266Y-29311600D01*
X32029661Y-29381523D01*
X32061183Y-29460418D01*
X32092031Y-29531266D01*
X32092183Y-29531595D01*
X32143553Y-29642733D01*
X31974601Y-29891253D01*
X31805648Y-30139772D01*
X32022571Y-30357058D01*
X32088181Y-30421726D01*
X32148021Y-30478733D01*
X32198733Y-30525033D01*
X32236954Y-30557584D01*
X32259325Y-30573343D01*
X32262534Y-30574343D01*
X32281374Y-30566469D01*
X32319820Y-30544578D01*
X32373670Y-30511267D01*
X32438724Y-30469131D01*
X32509060Y-30421943D01*
X32580445Y-30373810D01*
X32644092Y-30331928D01*
X32695959Y-30298871D01*
X32732005Y-30277218D01*
X32748133Y-30269543D01*
X32767811Y-30276037D01*
X32805125Y-30293150D01*
X32852379Y-30317326D01*
X32857388Y-30320013D01*
X32921023Y-30351927D01*
X32964659Y-30367579D01*
X32991798Y-30367745D01*
X33005943Y-30353204D01*
X33006025Y-30353000D01*
X33013095Y-30335779D01*
X33029958Y-30294899D01*
X33055305Y-30233525D01*
X33087829Y-30154819D01*
X33126222Y-30061947D01*
X33169178Y-29958072D01*
X33210778Y-29857502D01*
X33256496Y-29746516D01*
X33298474Y-29643703D01*
X33335452Y-29552215D01*
X33366173Y-29475201D01*
X33389378Y-29415815D01*
X33403810Y-29377209D01*
X33408257Y-29362800D01*
X33397104Y-29346272D01*
X33367931Y-29319930D01*
X33329029Y-29290887D01*
X33218243Y-29199039D01*
X33131649Y-29093759D01*
X33070284Y-28977266D01*
X33035185Y-28851776D01*
X33027392Y-28719507D01*
X33033057Y-28658457D01*
X33063922Y-28531795D01*
X33117080Y-28419941D01*
X33189233Y-28324001D01*
X33277083Y-28245076D01*
X33377335Y-28184270D01*
X33486690Y-28142687D01*
X33601853Y-28121428D01*
X33719525Y-28121599D01*
X33836410Y-28144301D01*
X33949211Y-28190638D01*
X34054631Y-28261713D01*
X34098632Y-28301911D01*
X34183021Y-28405129D01*
X34241778Y-28517925D01*
X34275296Y-28637010D01*
X34283965Y-28759095D01*
X34268177Y-28880893D01*
X34228322Y-28999116D01*
X34164793Y-29110475D01*
X34077979Y-29211684D01*
X33980971Y-29290887D01*
X33940563Y-29321162D01*
X33912018Y-29347219D01*
X33901743Y-29362825D01*
X33907123Y-29379843D01*
X33922425Y-29420500D01*
X33946388Y-29481642D01*
X33977756Y-29560119D01*
X34015268Y-29652780D01*
X34057667Y-29756472D01*
X34099337Y-29857526D01*
X34145310Y-29968607D01*
X34187893Y-30071541D01*
X34225779Y-30163165D01*
X34257660Y-30240316D01*
X34282229Y-30299831D01*
X34298180Y-30338544D01*
X34304090Y-30353000D01*
X34318052Y-30367685D01*
X34345060Y-30367642D01*
X34388587Y-30352099D01*
X34452110Y-30320284D01*
X34452612Y-30320013D01*
X34500440Y-30295323D01*
X34539103Y-30277338D01*
X34560905Y-30269614D01*
X34561867Y-30269543D01*
X34578279Y-30277378D01*
X34614513Y-30299165D01*
X34666526Y-30332328D01*
X34730275Y-30374291D01*
X34800940Y-30421943D01*
X34872884Y-30470191D01*
X34937726Y-30512151D01*
X34991265Y-30545227D01*
X35029303Y-30566821D01*
X35047467Y-30574343D01*
X35064192Y-30564457D01*
X35097820Y-30536826D01*
X35144990Y-30494495D01*
X35202342Y-30440505D01*
X35266516Y-30377899D01*
X35287503Y-30356983D01*
X35504501Y-30139623D01*
X35339332Y-29897220D01*
X35289136Y-29822781D01*
X35245081Y-29755972D01*
X35209638Y-29700665D01*
X35185281Y-29660729D01*
X35174478Y-29640036D01*
X35174162Y-29638563D01*
X35179857Y-29619058D01*
X35195174Y-29579822D01*
X35217463Y-29527430D01*
X35233107Y-29492355D01*
X35262359Y-29425201D01*
X35289906Y-29357358D01*
X35311263Y-29300034D01*
X35317065Y-29282572D01*
X35333548Y-29235938D01*
X35349660Y-29199905D01*
X35358510Y-29186287D01*
X35378040Y-29177952D01*
X35420666Y-29166137D01*
X35480855Y-29152181D01*
X35553078Y-29137422D01*
X35585400Y-29131355D01*
X35667478Y-29116273D01*
X35746205Y-29101669D01*
X35813891Y-29088980D01*
X35862840Y-29079642D01*
X35872057Y-29077839D01*
X35948257Y-29062799D01*
X35948257Y-28745492D01*
X35948086Y-28641154D01*
X35947384Y-28562213D01*
X35945866Y-28505038D01*
X35943251Y-28465999D01*
X35939254Y-28441465D01*
X35933591Y-28427805D01*
X35925980Y-28421389D01*
X35922857Y-28420199D01*
X35904022Y-28415980D01*
X35862412Y-28407562D01*
X35803370Y-28395961D01*
X35732243Y-28382195D01*
X35654375Y-28367280D01*
X35575113Y-28352232D01*
X35499802Y-28338069D01*
X35433787Y-28325806D01*
X35382413Y-28316461D01*
X35351025Y-28311050D01*
X35344041Y-28310114D01*
X35337715Y-28297596D01*
X35323710Y-28264246D01*
X35304645Y-28216377D01*
X35297366Y-28197629D01*
X35268004Y-28125195D01*
X35233429Y-28045170D01*
X35202463Y-27977728D01*
X35179677Y-27926159D01*
X35164518Y-27883785D01*
X35159458Y-27857834D01*
X35160264Y-27854356D01*
X35170959Y-27837936D01*
X35195380Y-27801417D01*
X35230905Y-27748687D01*
X35274913Y-27683635D01*
X35324783Y-27610151D01*
X35334644Y-27595645D01*
X35392508Y-27509704D01*
X35435044Y-27444261D01*
X35463946Y-27396304D01*
X35480910Y-27362820D01*
X35487633Y-27340795D01*
X35485810Y-27327217D01*
X35485764Y-27327131D01*
X35471414Y-27309297D01*
X35439677Y-27274817D01*
X35393990Y-27227268D01*
X35337796Y-27170222D01*
X35274532Y-27107255D01*
X35267398Y-27100227D01*
X35187670Y-27023020D01*
X35126143Y-26966330D01*
X35081579Y-26929110D01*
X35052743Y-26910315D01*
X35040042Y-26907889D01*
X35021506Y-26918471D01*
X34983039Y-26942916D01*
X34928614Y-26978612D01*
X34862202Y-27022947D01*
X34787775Y-27073311D01*
X34770399Y-27085160D01*
X34523703Y-27253626D01*
X34412294Y-27203062D01*
X34344543Y-27173595D01*
X34271817Y-27143959D01*
X34209297Y-27120330D01*
X34206543Y-27119358D01*
X34157640Y-27101457D01*
X34119943Y-27086320D01*
X34101575Y-27077210D01*
X34101544Y-27077184D01*
X34095715Y-27060717D01*
X34085808Y-27020219D01*
X34072805Y-26960242D01*
X34057691Y-26885340D01*
X34041448Y-26800064D01*
X34040119Y-26792875D01*
X34023825Y-26705014D01*
X34008867Y-26625260D01*
X33996209Y-26558681D01*
X33986814Y-26510347D01*
X33981646Y-26485325D01*
X33981556Y-26484943D01*
X33978411Y-26474299D01*
X33972296Y-26466262D01*
X33959547Y-26460467D01*
X33936500Y-26456547D01*
X33899491Y-26454135D01*
X33844856Y-26452865D01*
X33768933Y-26452371D01*
X33668056Y-26452286D01*
X33655000Y-26452286D01*
X33551090Y-26452348D01*
G36*
X30501405Y-31176966D02*
G01*
X30443979Y-31214497D01*
X30416281Y-31248096D01*
X30394338Y-31309064D01*
X30392595Y-31357308D01*
X30396543Y-31421816D01*
X30545314Y-31486934D01*
X30617651Y-31520202D01*
X30664916Y-31546964D01*
X30689493Y-31570144D01*
X30693763Y-31592667D01*
X30680111Y-31617455D01*
X30665057Y-31633886D01*
X30621254Y-31660235D01*
X30573611Y-31662081D01*
X30529855Y-31641546D01*
X30497711Y-31600752D01*
X30491962Y-31586347D01*
X30464424Y-31541356D01*
X30432742Y-31522182D01*
X30389286Y-31505779D01*
X30389286Y-31567966D01*
X30393128Y-31610283D01*
X30408177Y-31645969D01*
X30439720Y-31686943D01*
X30444408Y-31692267D01*
X30479494Y-31728720D01*
X30509653Y-31748283D01*
X30547385Y-31757283D01*
X30578665Y-31760230D01*
X30634615Y-31760965D01*
X30674445Y-31751660D01*
X30699292Y-31737846D01*
X30738344Y-31707467D01*
X30765375Y-31674613D01*
X30782483Y-31633294D01*
X30791762Y-31577521D01*
X30795307Y-31501305D01*
X30795590Y-31462622D01*
X30794628Y-31416247D01*
X30706993Y-31416247D01*
X30705977Y-31441126D01*
X30703444Y-31445200D01*
X30686726Y-31439665D01*
X30650751Y-31425017D01*
X30602669Y-31404190D01*
X30592614Y-31399714D01*
X30531848Y-31368814D01*
X30498368Y-31341657D01*
X30491010Y-31316220D01*
X30508609Y-31290481D01*
X30523144Y-31279109D01*
X30575590Y-31256364D01*
X30624678Y-31260122D01*
X30665773Y-31287884D01*
X30694242Y-31337152D01*
X30703369Y-31376257D01*
X30706993Y-31416247D01*
X30794628Y-31416247D01*
X30793715Y-31372249D01*
X30786804Y-31305384D01*
X30773116Y-31256695D01*
X30750904Y-31220849D01*
X30718426Y-31192513D01*
X30704267Y-31183355D01*
X30639947Y-31159507D01*
X30569527Y-31158006D01*
X30501405Y-31176966D01*
G37*
X30501405Y-31176966D02*
X30443979Y-31214497D01*
X30416281Y-31248096D01*
X30394338Y-31309064D01*
X30392595Y-31357308D01*
X30396543Y-31421816D01*
X30545314Y-31486934D01*
X30617651Y-31520202D01*
X30664916Y-31546964D01*
X30689493Y-31570144D01*
X30693763Y-31592667D01*
X30680111Y-31617455D01*
X30665057Y-31633886D01*
X30621254Y-31660235D01*
X30573611Y-31662081D01*
X30529855Y-31641546D01*
X30497711Y-31600752D01*
X30491962Y-31586347D01*
X30464424Y-31541356D01*
X30432742Y-31522182D01*
X30389286Y-31505779D01*
X30389286Y-31567966D01*
X30393128Y-31610283D01*
X30408177Y-31645969D01*
X30439720Y-31686943D01*
X30444408Y-31692267D01*
X30479494Y-31728720D01*
X30509653Y-31748283D01*
X30547385Y-31757283D01*
X30578665Y-31760230D01*
X30634615Y-31760965D01*
X30674445Y-31751660D01*
X30699292Y-31737846D01*
X30738344Y-31707467D01*
X30765375Y-31674613D01*
X30782483Y-31633294D01*
X30791762Y-31577521D01*
X30795307Y-31501305D01*
X30795590Y-31462622D01*
X30794628Y-31416247D01*
X30706993Y-31416247D01*
X30705977Y-31441126D01*
X30703444Y-31445200D01*
X30686726Y-31439665D01*
X30650751Y-31425017D01*
X30602669Y-31404190D01*
X30592614Y-31399714D01*
X30531848Y-31368814D01*
X30498368Y-31341657D01*
X30491010Y-31316220D01*
X30508609Y-31290481D01*
X30523144Y-31279109D01*
X30575590Y-31256364D01*
X30624678Y-31260122D01*
X30665773Y-31287884D01*
X30694242Y-31337152D01*
X30703369Y-31376257D01*
X30706993Y-31416247D01*
X30794628Y-31416247D01*
X30793715Y-31372249D01*
X30786804Y-31305384D01*
X30773116Y-31256695D01*
X30750904Y-31220849D01*
X30718426Y-31192513D01*
X30704267Y-31183355D01*
X30639947Y-31159507D01*
X30569527Y-31158006D01*
X30501405Y-31176966D01*
G36*
X31002400Y-31168752D02*
G01*
X30985052Y-31176334D01*
X30943644Y-31209128D01*
X30908235Y-31256547D01*
X30886336Y-31307151D01*
X30882771Y-31332098D01*
X30894721Y-31366927D01*
X30920933Y-31385357D01*
X30949036Y-31396516D01*
X30961905Y-31398572D01*
X30968171Y-31383649D01*
X30980544Y-31351175D01*
X30985972Y-31336502D01*
X31016410Y-31285744D01*
X31060480Y-31260427D01*
X31116990Y-31261206D01*
X31121175Y-31262203D01*
X31151345Y-31276507D01*
X31173524Y-31304393D01*
X31188673Y-31349287D01*
X31197750Y-31414615D01*
X31201714Y-31503804D01*
X31202086Y-31551261D01*
X31202270Y-31626071D01*
X31203478Y-31677069D01*
X31206691Y-31709471D01*
X31212891Y-31728495D01*
X31223060Y-31739356D01*
X31238181Y-31747272D01*
X31239054Y-31747670D01*
X31268172Y-31759981D01*
X31282597Y-31764514D01*
X31284814Y-31750809D01*
X31286711Y-31712925D01*
X31288153Y-31655715D01*
X31289002Y-31584027D01*
X31289171Y-31531565D01*
X31288308Y-31430047D01*
X31284930Y-31353032D01*
X31277858Y-31296023D01*
X31265912Y-31254526D01*
X31247910Y-31224043D01*
X31222673Y-31200080D01*
X31197753Y-31183355D01*
X31137829Y-31161097D01*
X31068089Y-31156076D01*
X31002400Y-31168752D01*
G37*
X31002400Y-31168752D02*
X30985052Y-31176334D01*
X30943644Y-31209128D01*
X30908235Y-31256547D01*
X30886336Y-31307151D01*
X30882771Y-31332098D01*
X30894721Y-31366927D01*
X30920933Y-31385357D01*
X30949036Y-31396516D01*
X30961905Y-31398572D01*
X30968171Y-31383649D01*
X30980544Y-31351175D01*
X30985972Y-31336502D01*
X31016410Y-31285744D01*
X31060480Y-31260427D01*
X31116990Y-31261206D01*
X31121175Y-31262203D01*
X31151345Y-31276507D01*
X31173524Y-31304393D01*
X31188673Y-31349287D01*
X31197750Y-31414615D01*
X31201714Y-31503804D01*
X31202086Y-31551261D01*
X31202270Y-31626071D01*
X31203478Y-31677069D01*
X31206691Y-31709471D01*
X31212891Y-31728495D01*
X31223060Y-31739356D01*
X31238181Y-31747272D01*
X31239054Y-31747670D01*
X31268172Y-31759981D01*
X31282597Y-31764514D01*
X31284814Y-31750809D01*
X31286711Y-31712925D01*
X31288153Y-31655715D01*
X31289002Y-31584027D01*
X31289171Y-31531565D01*
X31288308Y-31430047D01*
X31284930Y-31353032D01*
X31277858Y-31296023D01*
X31265912Y-31254526D01*
X31247910Y-31224043D01*
X31222673Y-31200080D01*
X31197753Y-31183355D01*
X31137829Y-31161097D01*
X31068089Y-31156076D01*
X31002400Y-31168752D01*
G36*
X31510124Y-31166335D02*
G01*
X31468333Y-31185344D01*
X31435531Y-31208378D01*
X31411497Y-31234133D01*
X31394903Y-31267358D01*
X31384423Y-31312800D01*
X31378729Y-31375207D01*
X31376493Y-31459327D01*
X31376257Y-31514721D01*
X31376257Y-31730826D01*
X31413226Y-31747670D01*
X31442344Y-31759981D01*
X31456769Y-31764514D01*
X31459528Y-31751025D01*
X31461718Y-31714653D01*
X31463058Y-31661542D01*
X31463343Y-31619372D01*
X31464566Y-31558447D01*
X31467864Y-31510115D01*
X31472679Y-31480518D01*
X31476504Y-31474229D01*
X31502217Y-31480652D01*
X31542582Y-31497125D01*
X31589321Y-31519458D01*
X31634155Y-31543457D01*
X31668807Y-31564930D01*
X31684998Y-31579685D01*
X31685062Y-31579845D01*
X31683670Y-31607152D01*
X31671182Y-31633219D01*
X31649257Y-31654392D01*
X31617257Y-31661474D01*
X31589908Y-31660649D01*
X31551174Y-31660042D01*
X31530842Y-31669116D01*
X31518631Y-31693092D01*
X31517091Y-31697613D01*
X31511797Y-31731806D01*
X31525953Y-31752568D01*
X31562852Y-31762462D01*
X31602711Y-31764292D01*
X31674438Y-31750727D01*
X31711568Y-31731355D01*
X31757424Y-31685845D01*
X31781744Y-31629983D01*
X31783927Y-31570957D01*
X31763371Y-31515953D01*
X31732451Y-31481486D01*
X31701580Y-31462189D01*
X31653058Y-31437759D01*
X31596515Y-31412985D01*
X31587090Y-31409199D01*
X31524981Y-31381791D01*
X31489178Y-31357634D01*
X31477663Y-31333619D01*
X31488420Y-31306635D01*
X31506886Y-31285543D01*
X31550531Y-31259572D01*
X31598554Y-31257624D01*
X31642594Y-31277637D01*
X31674291Y-31317551D01*
X31678451Y-31327848D01*
X31702673Y-31365724D01*
X31738035Y-31393842D01*
X31782657Y-31416917D01*
X31782657Y-31351485D01*
X31780031Y-31311506D01*
X31768770Y-31279997D01*
X31743801Y-31246378D01*
X31719831Y-31220484D01*
X31682559Y-31183817D01*
X31653599Y-31164121D01*
X31622495Y-31156220D01*
X31587287Y-31154914D01*
X31510124Y-31166335D01*
G37*
X31510124Y-31166335D02*
X31468333Y-31185344D01*
X31435531Y-31208378D01*
X31411497Y-31234133D01*
X31394903Y-31267358D01*
X31384423Y-31312800D01*
X31378729Y-31375207D01*
X31376493Y-31459327D01*
X31376257Y-31514721D01*
X31376257Y-31730826D01*
X31413226Y-31747670D01*
X31442344Y-31759981D01*
X31456769Y-31764514D01*
X31459528Y-31751025D01*
X31461718Y-31714653D01*
X31463058Y-31661542D01*
X31463343Y-31619372D01*
X31464566Y-31558447D01*
X31467864Y-31510115D01*
X31472679Y-31480518D01*
X31476504Y-31474229D01*
X31502217Y-31480652D01*
X31542582Y-31497125D01*
X31589321Y-31519458D01*
X31634155Y-31543457D01*
X31668807Y-31564930D01*
X31684998Y-31579685D01*
X31685062Y-31579845D01*
X31683670Y-31607152D01*
X31671182Y-31633219D01*
X31649257Y-31654392D01*
X31617257Y-31661474D01*
X31589908Y-31660649D01*
X31551174Y-31660042D01*
X31530842Y-31669116D01*
X31518631Y-31693092D01*
X31517091Y-31697613D01*
X31511797Y-31731806D01*
X31525953Y-31752568D01*
X31562852Y-31762462D01*
X31602711Y-31764292D01*
X31674438Y-31750727D01*
X31711568Y-31731355D01*
X31757424Y-31685845D01*
X31781744Y-31629983D01*
X31783927Y-31570957D01*
X31763371Y-31515953D01*
X31732451Y-31481486D01*
X31701580Y-31462189D01*
X31653058Y-31437759D01*
X31596515Y-31412985D01*
X31587090Y-31409199D01*
X31524981Y-31381791D01*
X31489178Y-31357634D01*
X31477663Y-31333619D01*
X31488420Y-31306635D01*
X31506886Y-31285543D01*
X31550531Y-31259572D01*
X31598554Y-31257624D01*
X31642594Y-31277637D01*
X31674291Y-31317551D01*
X31678451Y-31327848D01*
X31702673Y-31365724D01*
X31738035Y-31393842D01*
X31782657Y-31416917D01*
X31782657Y-31351485D01*
X31780031Y-31311506D01*
X31768770Y-31279997D01*
X31743801Y-31246378D01*
X31719831Y-31220484D01*
X31682559Y-31183817D01*
X31653599Y-31164121D01*
X31622495Y-31156220D01*
X31587287Y-31154914D01*
X31510124Y-31166335D01*
G36*
X31875167Y-31168663D02*
G01*
X31872952Y-31206850D01*
X31871216Y-31264886D01*
X31870101Y-31338180D01*
X31869743Y-31415055D01*
X31869743Y-31675196D01*
X31915674Y-31721127D01*
X31947325Y-31749429D01*
X31975110Y-31760893D01*
X32013085Y-31760168D01*
X32028160Y-31758321D01*
X32075274Y-31752948D01*
X32114244Y-31749869D01*
X32123743Y-31749585D01*
X32155767Y-31751445D01*
X32201568Y-31756114D01*
X32219326Y-31758321D01*
X32262943Y-31761735D01*
X32292255Y-31754320D01*
X32321320Y-31731427D01*
X32331812Y-31721127D01*
X32377743Y-31675196D01*
X32377743Y-31188602D01*
X32340774Y-31171758D01*
X32308941Y-31159282D01*
X32290317Y-31154914D01*
X32285542Y-31168718D01*
X32281079Y-31207286D01*
X32277225Y-31266356D01*
X32274278Y-31341663D01*
X32272857Y-31405286D01*
X32268886Y-31655657D01*
X32234241Y-31660556D01*
X32202732Y-31657131D01*
X32187292Y-31646041D01*
X32182977Y-31625308D01*
X32179292Y-31581145D01*
X32176531Y-31519146D01*
X32174988Y-31444909D01*
X32174765Y-31406706D01*
X32174543Y-31186783D01*
X32128834Y-31170849D01*
X32096482Y-31160015D01*
X32078885Y-31154962D01*
X32078377Y-31154914D01*
X32076612Y-31168648D01*
X32074671Y-31206730D01*
X32072718Y-31264482D01*
X32070916Y-31337227D01*
X32069657Y-31405286D01*
X32065686Y-31655657D01*
X31978600Y-31655657D01*
X31974604Y-31427240D01*
X31970608Y-31198822D01*
X31928153Y-31176868D01*
X31896808Y-31161793D01*
X31878256Y-31154951D01*
X31877721Y-31154914D01*
X31875167Y-31168663D01*
G37*
X31875167Y-31168663D02*
X31872952Y-31206850D01*
X31871216Y-31264886D01*
X31870101Y-31338180D01*
X31869743Y-31415055D01*
X31869743Y-31675196D01*
X31915674Y-31721127D01*
X31947325Y-31749429D01*
X31975110Y-31760893D01*
X32013085Y-31760168D01*
X32028160Y-31758321D01*
X32075274Y-31752948D01*
X32114244Y-31749869D01*
X32123743Y-31749585D01*
X32155767Y-31751445D01*
X32201568Y-31756114D01*
X32219326Y-31758321D01*
X32262943Y-31761735D01*
X32292255Y-31754320D01*
X32321320Y-31731427D01*
X32331812Y-31721127D01*
X32377743Y-31675196D01*
X32377743Y-31188602D01*
X32340774Y-31171758D01*
X32308941Y-31159282D01*
X32290317Y-31154914D01*
X32285542Y-31168718D01*
X32281079Y-31207286D01*
X32277225Y-31266356D01*
X32274278Y-31341663D01*
X32272857Y-31405286D01*
X32268886Y-31655657D01*
X32234241Y-31660556D01*
X32202732Y-31657131D01*
X32187292Y-31646041D01*
X32182977Y-31625308D01*
X32179292Y-31581145D01*
X32176531Y-31519146D01*
X32174988Y-31444909D01*
X32174765Y-31406706D01*
X32174543Y-31186783D01*
X32128834Y-31170849D01*
X32096482Y-31160015D01*
X32078885Y-31154962D01*
X32078377Y-31154914D01*
X32076612Y-31168648D01*
X32074671Y-31206730D01*
X32072718Y-31264482D01*
X32070916Y-31337227D01*
X32069657Y-31405286D01*
X32065686Y-31655657D01*
X31978600Y-31655657D01*
X31974604Y-31427240D01*
X31970608Y-31198822D01*
X31928153Y-31176868D01*
X31896808Y-31161793D01*
X31878256Y-31154951D01*
X31877721Y-31154914D01*
X31875167Y-31168663D01*
G36*
X32464883Y-31275358D02*
G01*
X32465067Y-31383837D01*
X32465781Y-31467287D01*
X32467325Y-31529704D01*
X32469999Y-31575085D01*
X32474106Y-31607429D01*
X32479945Y-31630733D01*
X32487818Y-31648995D01*
X32493779Y-31659418D01*
X32543145Y-31715945D01*
X32605736Y-31751377D01*
X32674987Y-31764090D01*
X32744332Y-31752463D01*
X32785625Y-31731568D01*
X32828975Y-31695422D01*
X32858519Y-31651276D01*
X32876345Y-31593462D01*
X32884537Y-31516313D01*
X32885698Y-31459714D01*
X32885542Y-31455647D01*
X32784143Y-31455647D01*
X32783524Y-31520550D01*
X32780686Y-31563514D01*
X32774160Y-31591622D01*
X32762477Y-31611953D01*
X32748517Y-31627288D01*
X32701635Y-31656890D01*
X32651299Y-31659419D01*
X32603724Y-31634705D01*
X32600021Y-31631356D01*
X32584217Y-31613935D01*
X32574307Y-31593209D01*
X32568942Y-31562362D01*
X32566772Y-31514577D01*
X32566429Y-31461748D01*
X32567173Y-31395381D01*
X32570252Y-31351106D01*
X32576939Y-31322009D01*
X32588504Y-31301173D01*
X32597987Y-31290107D01*
X32642040Y-31262198D01*
X32692776Y-31258843D01*
X32741204Y-31280159D01*
X32750550Y-31288073D01*
X32766460Y-31305647D01*
X32776390Y-31326587D01*
X32781722Y-31357782D01*
X32783837Y-31406122D01*
X32784143Y-31455647D01*
X32885542Y-31455647D01*
X32882190Y-31368568D01*
X32870274Y-31300086D01*
X32847865Y-31248600D01*
X32812876Y-31208443D01*
X32785625Y-31187861D01*
X32736093Y-31165625D01*
X32678684Y-31155304D01*
X32625318Y-31158067D01*
X32595457Y-31169212D01*
X32583739Y-31172383D01*
X32575963Y-31160557D01*
X32570535Y-31128866D01*
X32566429Y-31080593D01*
X32561933Y-31026829D01*
X32555687Y-30994482D01*
X32544324Y-30975985D01*
X32524472Y-30963770D01*
X32512000Y-30958362D01*
X32464829Y-30938601D01*
X32464883Y-31275358D01*
G37*
X32464883Y-31275358D02*
X32465067Y-31383837D01*
X32465781Y-31467287D01*
X32467325Y-31529704D01*
X32469999Y-31575085D01*
X32474106Y-31607429D01*
X32479945Y-31630733D01*
X32487818Y-31648995D01*
X32493779Y-31659418D01*
X32543145Y-31715945D01*
X32605736Y-31751377D01*
X32674987Y-31764090D01*
X32744332Y-31752463D01*
X32785625Y-31731568D01*
X32828975Y-31695422D01*
X32858519Y-31651276D01*
X32876345Y-31593462D01*
X32884537Y-31516313D01*
X32885698Y-31459714D01*
X32885542Y-31455647D01*
X32784143Y-31455647D01*
X32783524Y-31520550D01*
X32780686Y-31563514D01*
X32774160Y-31591622D01*
X32762477Y-31611953D01*
X32748517Y-31627288D01*
X32701635Y-31656890D01*
X32651299Y-31659419D01*
X32603724Y-31634705D01*
X32600021Y-31631356D01*
X32584217Y-31613935D01*
X32574307Y-31593209D01*
X32568942Y-31562362D01*
X32566772Y-31514577D01*
X32566429Y-31461748D01*
X32567173Y-31395381D01*
X32570252Y-31351106D01*
X32576939Y-31322009D01*
X32588504Y-31301173D01*
X32597987Y-31290107D01*
X32642040Y-31262198D01*
X32692776Y-31258843D01*
X32741204Y-31280159D01*
X32750550Y-31288073D01*
X32766460Y-31305647D01*
X32776390Y-31326587D01*
X32781722Y-31357782D01*
X32783837Y-31406122D01*
X32784143Y-31455647D01*
X32885542Y-31455647D01*
X32882190Y-31368568D01*
X32870274Y-31300086D01*
X32847865Y-31248600D01*
X32812876Y-31208443D01*
X32785625Y-31187861D01*
X32736093Y-31165625D01*
X32678684Y-31155304D01*
X32625318Y-31158067D01*
X32595457Y-31169212D01*
X32583739Y-31172383D01*
X32575963Y-31160557D01*
X32570535Y-31128866D01*
X32566429Y-31080593D01*
X32561933Y-31026829D01*
X32555687Y-30994482D01*
X32544324Y-30975985D01*
X32524472Y-30963770D01*
X32512000Y-30958362D01*
X32464829Y-30938601D01*
X32464883Y-31275358D01*
G36*
X33125074Y-31159755D02*
G01*
X33059142Y-31184084D01*
X33005727Y-31227117D01*
X32984836Y-31257409D01*
X32962061Y-31312994D01*
X32962534Y-31353186D01*
X32986438Y-31380217D01*
X32995283Y-31384813D01*
X33033470Y-31399144D01*
X33052972Y-31395472D01*
X33059578Y-31371407D01*
X33059914Y-31358114D01*
X33072008Y-31309210D01*
X33103529Y-31274999D01*
X33147341Y-31258476D01*
X33196305Y-31262634D01*
X33236106Y-31284227D01*
X33249550Y-31296544D01*
X33259079Y-31311487D01*
X33265515Y-31334075D01*
X33269683Y-31369328D01*
X33272403Y-31422266D01*
X33274498Y-31497907D01*
X33275040Y-31521857D01*
X33277019Y-31603790D01*
X33279269Y-31661455D01*
X33282643Y-31699608D01*
X33287994Y-31723004D01*
X33296176Y-31736398D01*
X33308041Y-31744545D01*
X33315638Y-31748144D01*
X33347898Y-31760452D01*
X33366889Y-31764514D01*
X33373164Y-31750948D01*
X33376994Y-31709934D01*
X33378400Y-31640999D01*
X33377402Y-31543669D01*
X33377092Y-31528657D01*
X33374899Y-31439859D01*
X33372307Y-31375019D01*
X33368618Y-31329067D01*
X33363136Y-31296935D01*
X33355165Y-31273553D01*
X33344007Y-31253852D01*
X33338170Y-31245410D01*
X33304704Y-31208057D01*
X33267273Y-31179003D01*
X33262691Y-31176467D01*
X33195574Y-31156443D01*
X33125074Y-31159755D01*
G37*
X33125074Y-31159755D02*
X33059142Y-31184084D01*
X33005727Y-31227117D01*
X32984836Y-31257409D01*
X32962061Y-31312994D01*
X32962534Y-31353186D01*
X32986438Y-31380217D01*
X32995283Y-31384813D01*
X33033470Y-31399144D01*
X33052972Y-31395472D01*
X33059578Y-31371407D01*
X33059914Y-31358114D01*
X33072008Y-31309210D01*
X33103529Y-31274999D01*
X33147341Y-31258476D01*
X33196305Y-31262634D01*
X33236106Y-31284227D01*
X33249550Y-31296544D01*
X33259079Y-31311487D01*
X33265515Y-31334075D01*
X33269683Y-31369328D01*
X33272403Y-31422266D01*
X33274498Y-31497907D01*
X33275040Y-31521857D01*
X33277019Y-31603790D01*
X33279269Y-31661455D01*
X33282643Y-31699608D01*
X33287994Y-31723004D01*
X33296176Y-31736398D01*
X33308041Y-31744545D01*
X33315638Y-31748144D01*
X33347898Y-31760452D01*
X33366889Y-31764514D01*
X33373164Y-31750948D01*
X33376994Y-31709934D01*
X33378400Y-31640999D01*
X33377402Y-31543669D01*
X33377092Y-31528657D01*
X33374899Y-31439859D01*
X33372307Y-31375019D01*
X33368618Y-31329067D01*
X33363136Y-31296935D01*
X33355165Y-31273553D01*
X33344007Y-31253852D01*
X33338170Y-31245410D01*
X33304704Y-31208057D01*
X33267273Y-31179003D01*
X33262691Y-31176467D01*
X33195574Y-31156443D01*
X33125074Y-31159755D01*
G36*
X33615256Y-31160968D02*
G01*
X33558384Y-31182087D01*
X33557733Y-31182493D01*
X33522560Y-31208380D01*
X33496593Y-31238633D01*
X33478330Y-31278058D01*
X33466268Y-31331462D01*
X33458904Y-31403651D01*
X33454736Y-31499432D01*
X33454371Y-31513078D01*
X33449124Y-31718842D01*
X33493284Y-31741678D01*
X33525237Y-31757110D01*
X33544530Y-31764423D01*
X33545422Y-31764514D01*
X33548761Y-31751022D01*
X33551413Y-31714626D01*
X33553044Y-31661452D01*
X33553400Y-31618393D01*
X33553408Y-31548641D01*
X33556597Y-31504837D01*
X33567712Y-31483944D01*
X33591499Y-31482925D01*
X33632704Y-31498741D01*
X33694914Y-31527815D01*
X33740659Y-31551963D01*
X33764187Y-31572913D01*
X33771104Y-31595747D01*
X33771114Y-31596877D01*
X33759701Y-31636212D01*
X33725908Y-31657462D01*
X33674191Y-31660539D01*
X33636939Y-31660006D01*
X33617297Y-31670735D01*
X33605048Y-31696505D01*
X33597998Y-31729337D01*
X33608158Y-31747966D01*
X33611983Y-31750632D01*
X33647999Y-31761340D01*
X33698434Y-31762856D01*
X33750374Y-31755759D01*
X33787178Y-31742788D01*
X33838062Y-31699585D01*
X33866986Y-31639446D01*
X33872714Y-31592462D01*
X33868343Y-31550082D01*
X33852525Y-31515488D01*
X33821203Y-31484763D01*
X33770322Y-31453990D01*
X33695824Y-31419252D01*
X33691286Y-31417288D01*
X33624179Y-31386287D01*
X33582768Y-31360862D01*
X33565019Y-31338014D01*
X33568893Y-31314745D01*
X33592357Y-31288056D01*
X33599373Y-31281914D01*
X33646370Y-31258100D01*
X33695067Y-31259103D01*
X33737478Y-31282451D01*
X33765616Y-31325675D01*
X33768231Y-31334160D01*
X33793692Y-31375308D01*
X33825999Y-31395128D01*
X33872714Y-31414770D01*
X33872714Y-31363950D01*
X33858504Y-31290082D01*
X33816325Y-31222327D01*
X33794376Y-31199661D01*
X33744483Y-31170569D01*
X33681033Y-31157400D01*
X33615256Y-31160968D01*
G37*
X33615256Y-31160968D02*
X33558384Y-31182087D01*
X33557733Y-31182493D01*
X33522560Y-31208380D01*
X33496593Y-31238633D01*
X33478330Y-31278058D01*
X33466268Y-31331462D01*
X33458904Y-31403651D01*
X33454736Y-31499432D01*
X33454371Y-31513078D01*
X33449124Y-31718842D01*
X33493284Y-31741678D01*
X33525237Y-31757110D01*
X33544530Y-31764423D01*
X33545422Y-31764514D01*
X33548761Y-31751022D01*
X33551413Y-31714626D01*
X33553044Y-31661452D01*
X33553400Y-31618393D01*
X33553408Y-31548641D01*
X33556597Y-31504837D01*
X33567712Y-31483944D01*
X33591499Y-31482925D01*
X33632704Y-31498741D01*
X33694914Y-31527815D01*
X33740659Y-31551963D01*
X33764187Y-31572913D01*
X33771104Y-31595747D01*
X33771114Y-31596877D01*
X33759701Y-31636212D01*
X33725908Y-31657462D01*
X33674191Y-31660539D01*
X33636939Y-31660006D01*
X33617297Y-31670735D01*
X33605048Y-31696505D01*
X33597998Y-31729337D01*
X33608158Y-31747966D01*
X33611983Y-31750632D01*
X33647999Y-31761340D01*
X33698434Y-31762856D01*
X33750374Y-31755759D01*
X33787178Y-31742788D01*
X33838062Y-31699585D01*
X33866986Y-31639446D01*
X33872714Y-31592462D01*
X33868343Y-31550082D01*
X33852525Y-31515488D01*
X33821203Y-31484763D01*
X33770322Y-31453990D01*
X33695824Y-31419252D01*
X33691286Y-31417288D01*
X33624179Y-31386287D01*
X33582768Y-31360862D01*
X33565019Y-31338014D01*
X33568893Y-31314745D01*
X33592357Y-31288056D01*
X33599373Y-31281914D01*
X33646370Y-31258100D01*
X33695067Y-31259103D01*
X33737478Y-31282451D01*
X33765616Y-31325675D01*
X33768231Y-31334160D01*
X33793692Y-31375308D01*
X33825999Y-31395128D01*
X33872714Y-31414770D01*
X33872714Y-31363950D01*
X33858504Y-31290082D01*
X33816325Y-31222327D01*
X33794376Y-31199661D01*
X33744483Y-31170569D01*
X33681033Y-31157400D01*
X33615256Y-31160968D01*
G36*
X34279114Y-31061289D02*
G01*
X34274861Y-31120613D01*
X34269975Y-31155572D01*
X34263205Y-31170820D01*
X34253298Y-31171015D01*
X34250086Y-31169195D01*
X34207356Y-31156015D01*
X34151773Y-31156785D01*
X34095263Y-31170333D01*
X34059918Y-31187861D01*
X34023679Y-31215861D01*
X33997187Y-31247549D01*
X33979001Y-31287813D01*
X33967678Y-31341543D01*
X33961778Y-31413626D01*
X33959857Y-31508951D01*
X33959823Y-31527237D01*
X33959800Y-31732646D01*
X34005509Y-31748580D01*
X34037973Y-31759420D01*
X34055785Y-31764468D01*
X34056309Y-31764514D01*
X34058063Y-31750828D01*
X34059556Y-31713076D01*
X34060674Y-31656224D01*
X34061303Y-31585234D01*
X34061400Y-31542073D01*
X34061602Y-31456973D01*
X34062642Y-31395981D01*
X34065169Y-31354177D01*
X34069836Y-31326642D01*
X34077293Y-31308456D01*
X34088189Y-31294698D01*
X34094993Y-31288073D01*
X34141728Y-31261375D01*
X34192728Y-31259375D01*
X34238999Y-31281955D01*
X34247556Y-31290107D01*
X34260107Y-31305436D01*
X34268812Y-31323618D01*
X34274369Y-31349909D01*
X34277474Y-31389562D01*
X34278824Y-31447832D01*
X34279114Y-31528173D01*
X34279114Y-31732646D01*
X34324823Y-31748580D01*
X34357287Y-31759420D01*
X34375099Y-31764468D01*
X34375623Y-31764514D01*
X34376963Y-31750623D01*
X34378172Y-31711439D01*
X34379199Y-31650700D01*
X34379998Y-31572141D01*
X34380519Y-31479498D01*
X34380714Y-31376509D01*
X34380714Y-30979342D01*
X34333543Y-30959444D01*
X34286371Y-30939547D01*
X34279114Y-31061289D01*
G37*
X34279114Y-31061289D02*
X34274861Y-31120613D01*
X34269975Y-31155572D01*
X34263205Y-31170820D01*
X34253298Y-31171015D01*
X34250086Y-31169195D01*
X34207356Y-31156015D01*
X34151773Y-31156785D01*
X34095263Y-31170333D01*
X34059918Y-31187861D01*
X34023679Y-31215861D01*
X33997187Y-31247549D01*
X33979001Y-31287813D01*
X33967678Y-31341543D01*
X33961778Y-31413626D01*
X33959857Y-31508951D01*
X33959823Y-31527237D01*
X33959800Y-31732646D01*
X34005509Y-31748580D01*
X34037973Y-31759420D01*
X34055785Y-31764468D01*
X34056309Y-31764514D01*
X34058063Y-31750828D01*
X34059556Y-31713076D01*
X34060674Y-31656224D01*
X34061303Y-31585234D01*
X34061400Y-31542073D01*
X34061602Y-31456973D01*
X34062642Y-31395981D01*
X34065169Y-31354177D01*
X34069836Y-31326642D01*
X34077293Y-31308456D01*
X34088189Y-31294698D01*
X34094993Y-31288073D01*
X34141728Y-31261375D01*
X34192728Y-31259375D01*
X34238999Y-31281955D01*
X34247556Y-31290107D01*
X34260107Y-31305436D01*
X34268812Y-31323618D01*
X34274369Y-31349909D01*
X34277474Y-31389562D01*
X34278824Y-31447832D01*
X34279114Y-31528173D01*
X34279114Y-31732646D01*
X34324823Y-31748580D01*
X34357287Y-31759420D01*
X34375099Y-31764468D01*
X34375623Y-31764514D01*
X34376963Y-31750623D01*
X34378172Y-31711439D01*
X34379199Y-31650700D01*
X34379998Y-31572141D01*
X34380519Y-31479498D01*
X34380714Y-31376509D01*
X34380714Y-30979342D01*
X34333543Y-30959444D01*
X34286371Y-30939547D01*
X34279114Y-31061289D01*
G36*
X35486697Y-31141239D02*
G01*
X35429473Y-31179735D01*
X35385251Y-31235335D01*
X35358833Y-31306086D01*
X35353490Y-31358162D01*
X35354097Y-31379893D01*
X35359178Y-31396531D01*
X35373145Y-31411437D01*
X35400411Y-31427973D01*
X35445388Y-31449498D01*
X35512489Y-31479374D01*
X35512829Y-31479524D01*
X35574593Y-31507813D01*
X35625241Y-31532933D01*
X35659596Y-31552179D01*
X35672482Y-31562848D01*
X35672486Y-31562934D01*
X35661128Y-31586166D01*
X35634569Y-31611774D01*
X35604077Y-31630221D01*
X35588630Y-31633886D01*
X35546485Y-31621212D01*
X35510192Y-31589471D01*
X35492483Y-31554572D01*
X35475448Y-31528845D01*
X35442078Y-31499546D01*
X35402851Y-31474235D01*
X35368244Y-31460471D01*
X35361007Y-31459714D01*
X35352861Y-31472160D01*
X35352370Y-31503972D01*
X35358357Y-31546866D01*
X35369643Y-31592558D01*
X35385050Y-31632761D01*
X35385829Y-31634322D01*
X35432196Y-31699062D01*
X35492289Y-31743097D01*
X35560535Y-31764711D01*
X35631362Y-31762185D01*
X35699196Y-31733804D01*
X35702212Y-31731808D01*
X35755573Y-31683448D01*
X35790660Y-31620352D01*
X35810078Y-31537387D01*
X35812684Y-31514078D01*
X35817299Y-31404055D01*
X35811767Y-31352748D01*
X35672486Y-31352748D01*
X35670676Y-31384753D01*
X35660778Y-31394093D01*
X35636102Y-31387105D01*
X35597205Y-31370587D01*
X35553725Y-31349881D01*
X35552644Y-31349333D01*
X35515791Y-31329949D01*
X35501000Y-31317013D01*
X35504647Y-31303451D01*
X35520005Y-31285632D01*
X35559077Y-31259845D01*
X35601154Y-31257950D01*
X35638897Y-31276717D01*
X35664966Y-31312915D01*
X35672486Y-31352748D01*
X35811767Y-31352748D01*
X35807806Y-31316027D01*
X35783450Y-31246212D01*
X35749544Y-31197302D01*
X35688347Y-31147878D01*
X35620937Y-31123359D01*
X35552120Y-31121797D01*
X35486697Y-31141239D01*
G37*
X35486697Y-31141239D02*
X35429473Y-31179735D01*
X35385251Y-31235335D01*
X35358833Y-31306086D01*
X35353490Y-31358162D01*
X35354097Y-31379893D01*
X35359178Y-31396531D01*
X35373145Y-31411437D01*
X35400411Y-31427973D01*
X35445388Y-31449498D01*
X35512489Y-31479374D01*
X35512829Y-31479524D01*
X35574593Y-31507813D01*
X35625241Y-31532933D01*
X35659596Y-31552179D01*
X35672482Y-31562848D01*
X35672486Y-31562934D01*
X35661128Y-31586166D01*
X35634569Y-31611774D01*
X35604077Y-31630221D01*
X35588630Y-31633886D01*
X35546485Y-31621212D01*
X35510192Y-31589471D01*
X35492483Y-31554572D01*
X35475448Y-31528845D01*
X35442078Y-31499546D01*
X35402851Y-31474235D01*
X35368244Y-31460471D01*
X35361007Y-31459714D01*
X35352861Y-31472160D01*
X35352370Y-31503972D01*
X35358357Y-31546866D01*
X35369643Y-31592558D01*
X35385050Y-31632761D01*
X35385829Y-31634322D01*
X35432196Y-31699062D01*
X35492289Y-31743097D01*
X35560535Y-31764711D01*
X35631362Y-31762185D01*
X35699196Y-31733804D01*
X35702212Y-31731808D01*
X35755573Y-31683448D01*
X35790660Y-31620352D01*
X35810078Y-31537387D01*
X35812684Y-31514078D01*
X35817299Y-31404055D01*
X35811767Y-31352748D01*
X35672486Y-31352748D01*
X35670676Y-31384753D01*
X35660778Y-31394093D01*
X35636102Y-31387105D01*
X35597205Y-31370587D01*
X35553725Y-31349881D01*
X35552644Y-31349333D01*
X35515791Y-31329949D01*
X35501000Y-31317013D01*
X35504647Y-31303451D01*
X35520005Y-31285632D01*
X35559077Y-31259845D01*
X35601154Y-31257950D01*
X35638897Y-31276717D01*
X35664966Y-31312915D01*
X35672486Y-31352748D01*
X35811767Y-31352748D01*
X35807806Y-31316027D01*
X35783450Y-31246212D01*
X35749544Y-31197302D01*
X35688347Y-31147878D01*
X35620937Y-31123359D01*
X35552120Y-31121797D01*
X35486697Y-31141239D01*
G36*
X36613885Y-31131962D02*
G01*
X36545855Y-31167733D01*
X36495649Y-31225301D01*
X36477815Y-31262312D01*
X36463937Y-31317882D01*
X36456833Y-31388096D01*
X36456160Y-31464727D01*
X36461573Y-31539552D01*
X36472730Y-31604342D01*
X36489286Y-31650873D01*
X36494374Y-31658887D01*
X36554645Y-31718707D01*
X36626231Y-31754535D01*
X36703908Y-31765020D01*
X36782452Y-31748810D01*
X36804311Y-31739092D01*
X36846878Y-31709143D01*
X36884237Y-31669433D01*
X36887768Y-31664397D01*
X36902119Y-31640124D01*
X36911606Y-31614178D01*
X36917210Y-31580022D01*
X36919914Y-31531119D01*
X36920701Y-31460935D01*
X36920714Y-31445200D01*
X36920678Y-31440192D01*
X36775571Y-31440192D01*
X36774727Y-31506430D01*
X36771404Y-31550386D01*
X36764417Y-31578779D01*
X36752584Y-31598325D01*
X36746543Y-31604857D01*
X36711814Y-31629680D01*
X36678097Y-31628548D01*
X36644005Y-31607016D01*
X36623671Y-31584029D01*
X36611629Y-31550478D01*
X36604866Y-31497569D01*
X36604402Y-31491399D01*
X36603248Y-31395513D01*
X36615312Y-31324299D01*
X36640430Y-31278194D01*
X36678440Y-31257635D01*
X36692008Y-31256514D01*
X36727636Y-31262152D01*
X36752006Y-31281686D01*
X36766907Y-31319042D01*
X36774125Y-31378150D01*
X36775571Y-31440192D01*
X36920678Y-31440192D01*
X36920174Y-31370413D01*
X36917904Y-31318159D01*
X36912932Y-31281949D01*
X36904287Y-31255299D01*
X36890995Y-31231722D01*
X36888057Y-31227338D01*
X36838687Y-31168249D01*
X36784891Y-31133947D01*
X36719398Y-31120331D01*
X36697158Y-31119665D01*
X36613885Y-31131962D01*
G37*
X36613885Y-31131962D02*
X36545855Y-31167733D01*
X36495649Y-31225301D01*
X36477815Y-31262312D01*
X36463937Y-31317882D01*
X36456833Y-31388096D01*
X36456160Y-31464727D01*
X36461573Y-31539552D01*
X36472730Y-31604342D01*
X36489286Y-31650873D01*
X36494374Y-31658887D01*
X36554645Y-31718707D01*
X36626231Y-31754535D01*
X36703908Y-31765020D01*
X36782452Y-31748810D01*
X36804311Y-31739092D01*
X36846878Y-31709143D01*
X36884237Y-31669433D01*
X36887768Y-31664397D01*
X36902119Y-31640124D01*
X36911606Y-31614178D01*
X36917210Y-31580022D01*
X36919914Y-31531119D01*
X36920701Y-31460935D01*
X36920714Y-31445200D01*
X36920678Y-31440192D01*
X36775571Y-31440192D01*
X36774727Y-31506430D01*
X36771404Y-31550386D01*
X36764417Y-31578779D01*
X36752584Y-31598325D01*
X36746543Y-31604857D01*
X36711814Y-31629680D01*
X36678097Y-31628548D01*
X36644005Y-31607016D01*
X36623671Y-31584029D01*
X36611629Y-31550478D01*
X36604866Y-31497569D01*
X36604402Y-31491399D01*
X36603248Y-31395513D01*
X36615312Y-31324299D01*
X36640430Y-31278194D01*
X36678440Y-31257635D01*
X36692008Y-31256514D01*
X36727636Y-31262152D01*
X36752006Y-31281686D01*
X36766907Y-31319042D01*
X36774125Y-31378150D01*
X36775571Y-31440192D01*
X36920678Y-31440192D01*
X36920174Y-31370413D01*
X36917904Y-31318159D01*
X36912932Y-31281949D01*
X36904287Y-31255299D01*
X36890995Y-31231722D01*
X36888057Y-31227338D01*
X36838687Y-31168249D01*
X36784891Y-31133947D01*
X36719398Y-31120331D01*
X36697158Y-31119665D01*
X36613885Y-31131962D01*
G36*
X34938907Y-31137780D02*
G01*
X34892328Y-31164723D01*
X34859943Y-31191466D01*
X34836258Y-31219484D01*
X34819941Y-31253748D01*
X34809661Y-31299227D01*
X34804086Y-31360892D01*
X34801884Y-31443711D01*
X34801629Y-31503246D01*
X34801629Y-31722391D01*
X34863314Y-31750044D01*
X34925000Y-31777697D01*
X34932257Y-31537670D01*
X34935256Y-31448028D01*
X34938402Y-31382962D01*
X34942299Y-31338026D01*
X34947553Y-31308770D01*
X34954769Y-31290748D01*
X34964550Y-31279511D01*
X34967688Y-31277079D01*
X35015239Y-31258083D01*
X35063303Y-31265600D01*
X35091914Y-31285543D01*
X35103553Y-31299675D01*
X35111609Y-31318220D01*
X35116729Y-31346334D01*
X35119559Y-31389173D01*
X35120744Y-31451895D01*
X35120943Y-31517261D01*
X35120982Y-31599268D01*
X35122386Y-31657316D01*
X35127086Y-31696465D01*
X35137013Y-31721780D01*
X35154097Y-31738323D01*
X35180268Y-31751156D01*
X35215225Y-31764491D01*
X35253404Y-31779007D01*
X35248859Y-31521389D01*
X35247029Y-31428519D01*
X35244888Y-31359889D01*
X35241819Y-31310711D01*
X35237206Y-31276198D01*
X35230432Y-31251562D01*
X35220881Y-31232016D01*
X35209366Y-31214770D01*
X35153810Y-31159680D01*
X35086020Y-31127822D01*
X35012287Y-31120191D01*
X34938907Y-31137780D01*
G37*
X34938907Y-31137780D02*
X34892328Y-31164723D01*
X34859943Y-31191466D01*
X34836258Y-31219484D01*
X34819941Y-31253748D01*
X34809661Y-31299227D01*
X34804086Y-31360892D01*
X34801884Y-31443711D01*
X34801629Y-31503246D01*
X34801629Y-31722391D01*
X34863314Y-31750044D01*
X34925000Y-31777697D01*
X34932257Y-31537670D01*
X34935256Y-31448028D01*
X34938402Y-31382962D01*
X34942299Y-31338026D01*
X34947553Y-31308770D01*
X34954769Y-31290748D01*
X34964550Y-31279511D01*
X34967688Y-31277079D01*
X35015239Y-31258083D01*
X35063303Y-31265600D01*
X35091914Y-31285543D01*
X35103553Y-31299675D01*
X35111609Y-31318220D01*
X35116729Y-31346334D01*
X35119559Y-31389173D01*
X35120744Y-31451895D01*
X35120943Y-31517261D01*
X35120982Y-31599268D01*
X35122386Y-31657316D01*
X35127086Y-31696465D01*
X35137013Y-31721780D01*
X35154097Y-31738323D01*
X35180268Y-31751156D01*
X35215225Y-31764491D01*
X35253404Y-31779007D01*
X35248859Y-31521389D01*
X35247029Y-31428519D01*
X35244888Y-31359889D01*
X35241819Y-31310711D01*
X35237206Y-31276198D01*
X35230432Y-31251562D01*
X35220881Y-31232016D01*
X35209366Y-31214770D01*
X35153810Y-31159680D01*
X35086020Y-31127822D01*
X35012287Y-31120191D01*
X34938907Y-31137780D01*
G36*
X36055256Y-31129918D02*
G01*
X35999799Y-31157568D01*
X35950852Y-31208480D01*
X35937371Y-31227338D01*
X35922686Y-31252015D01*
X35913158Y-31278816D01*
X35907707Y-31314587D01*
X35905253Y-31366169D01*
X35904714Y-31434267D01*
X35907148Y-31527588D01*
X35915606Y-31597657D01*
X35931826Y-31649931D01*
X35957546Y-31689869D01*
X35994503Y-31722929D01*
X35997218Y-31724886D01*
X36033640Y-31744908D01*
X36077498Y-31754815D01*
X36133276Y-31757257D01*
X36223952Y-31757257D01*
X36223990Y-31845283D01*
X36224834Y-31894308D01*
X36229976Y-31923065D01*
X36243413Y-31940311D01*
X36269142Y-31954808D01*
X36275321Y-31957769D01*
X36304236Y-31971648D01*
X36326624Y-31980414D01*
X36343271Y-31981171D01*
X36354964Y-31971023D01*
X36362490Y-31947073D01*
X36366634Y-31906426D01*
X36368185Y-31846186D01*
X36367929Y-31763455D01*
X36366651Y-31655339D01*
X36366252Y-31623000D01*
X36364815Y-31511524D01*
X36363528Y-31438603D01*
X36224029Y-31438603D01*
X36223245Y-31500499D01*
X36219760Y-31540997D01*
X36211876Y-31567708D01*
X36197895Y-31588244D01*
X36188403Y-31598260D01*
X36149596Y-31627567D01*
X36115237Y-31629952D01*
X36079784Y-31605750D01*
X36078886Y-31604857D01*
X36064461Y-31586153D01*
X36055687Y-31560732D01*
X36051261Y-31521584D01*
X36049882Y-31461697D01*
X36049857Y-31448430D01*
X36053188Y-31365901D01*
X36064031Y-31308691D01*
X36083660Y-31273766D01*
X36113350Y-31258094D01*
X36130509Y-31256514D01*
X36171234Y-31263926D01*
X36199168Y-31288330D01*
X36215983Y-31332980D01*
X36223350Y-31401130D01*
X36224029Y-31438603D01*
X36363528Y-31438603D01*
X36363292Y-31425245D01*
X36361323Y-31360333D01*
X36358550Y-31312958D01*
X36354612Y-31279290D01*
X36349151Y-31255498D01*
X36341808Y-31237753D01*
X36332223Y-31222224D01*
X36328113Y-31216381D01*
X36273595Y-31161185D01*
X36204664Y-31129890D01*
X36124928Y-31121165D01*
X36055256Y-31129918D01*
G37*
X36055256Y-31129918D02*
X35999799Y-31157568D01*
X35950852Y-31208480D01*
X35937371Y-31227338D01*
X35922686Y-31252015D01*
X35913158Y-31278816D01*
X35907707Y-31314587D01*
X35905253Y-31366169D01*
X35904714Y-31434267D01*
X35907148Y-31527588D01*
X35915606Y-31597657D01*
X35931826Y-31649931D01*
X35957546Y-31689869D01*
X35994503Y-31722929D01*
X35997218Y-31724886D01*
X36033640Y-31744908D01*
X36077498Y-31754815D01*
X36133276Y-31757257D01*
X36223952Y-31757257D01*
X36223990Y-31845283D01*
X36224834Y-31894308D01*
X36229976Y-31923065D01*
X36243413Y-31940311D01*
X36269142Y-31954808D01*
X36275321Y-31957769D01*
X36304236Y-31971648D01*
X36326624Y-31980414D01*
X36343271Y-31981171D01*
X36354964Y-31971023D01*
X36362490Y-31947073D01*
X36366634Y-31906426D01*
X36368185Y-31846186D01*
X36367929Y-31763455D01*
X36366651Y-31655339D01*
X36366252Y-31623000D01*
X36364815Y-31511524D01*
X36363528Y-31438603D01*
X36224029Y-31438603D01*
X36223245Y-31500499D01*
X36219760Y-31540997D01*
X36211876Y-31567708D01*
X36197895Y-31588244D01*
X36188403Y-31598260D01*
X36149596Y-31627567D01*
X36115237Y-31629952D01*
X36079784Y-31605750D01*
X36078886Y-31604857D01*
X36064461Y-31586153D01*
X36055687Y-31560732D01*
X36051261Y-31521584D01*
X36049882Y-31461697D01*
X36049857Y-31448430D01*
X36053188Y-31365901D01*
X36064031Y-31308691D01*
X36083660Y-31273766D01*
X36113350Y-31258094D01*
X36130509Y-31256514D01*
X36171234Y-31263926D01*
X36199168Y-31288330D01*
X36215983Y-31332980D01*
X36223350Y-31401130D01*
X36224029Y-31438603D01*
X36363528Y-31438603D01*
X36363292Y-31425245D01*
X36361323Y-31360333D01*
X36358550Y-31312958D01*
X36354612Y-31279290D01*
X36349151Y-31255498D01*
X36341808Y-31237753D01*
X36332223Y-31222224D01*
X36328113Y-31216381D01*
X36273595Y-31161185D01*
X36204664Y-31129890D01*
X36124928Y-31121165D01*
X36055256Y-31129918D01*
%TD*%
M02*
